<svg width="63" height="32" viewBox="0 0 63 32" fill="none" xmlns="http://www.w3.org/2000/svg">
<path d="M0 17.2391V16.9779L0.556254 16.7689C1.12134 16.5425 1.40389 16.0985 1.40389 15.4368V1.80227C1.40389 1.10574 1.12134 0.661701 0.556254 0.470156L0 0.261198V0H6.99294C8.86479 0 10.4718 0.348264 11.8138 1.04479C13.1736 1.72391 14.2154 2.70775 14.9395 3.99633C15.6811 5.26749 16.052 6.79985 16.052 8.59341C16.052 10.4218 15.6547 11.9803 14.86 13.2688C14.0653 14.5574 12.9528 15.5413 11.5225 16.2204C10.1097 16.8995 8.44098 17.2391 6.51615 17.2391H0ZM5.37714 16.7167H6.51615C7.7876 16.7167 8.81181 16.4729 9.58881 15.9853C10.3658 15.4803 10.9309 14.6445 11.2841 13.4778C11.6549 12.2937 11.8403 10.6743 11.8403 8.61953C11.8403 6.56477 11.6549 4.95405 11.2841 3.78737C10.9309 2.60327 10.3746 1.76744 9.61529 1.27987C8.85596 0.774887 7.85823 0.522395 6.6221 0.522395H5.37714V16.7167Z" fill="#212121"/>
<path d="M17.5889 17.2391V16.9779L18.1982 16.7428C18.4984 16.6209 18.7014 16.4642 18.8074 16.2726C18.931 16.0637 18.9928 15.7851 18.9928 15.4368V1.80227C18.9928 1.454 18.9398 1.1841 18.8339 0.992551C18.7456 0.783594 18.5337 0.618169 18.1982 0.496276L17.5889 0.261198V0H30.2769L30.4358 4.02245H30.1709L29.0319 1.56719C28.873 1.25375 28.7052 1.00126 28.5286 0.809714C28.3521 0.618168 28.0872 0.522395 27.734 0.522395H22.9661V8.07101H25.8003C26.1535 8.07101 26.4184 7.98395 26.595 7.80981C26.7892 7.61827 26.957 7.36578 27.0983 7.05234L27.628 6.00755H27.8929V10.7091H27.628L27.0983 9.61208C26.9393 9.29864 26.7716 9.05486 26.595 8.88072C26.4184 8.68918 26.1535 8.59341 25.8003 8.59341H22.9661V16.7167H28.3167C28.6699 16.7167 28.9436 16.6296 29.1379 16.4555C29.3321 16.2639 29.4911 16.0027 29.6147 15.6719L30.7007 13.2166H30.9656L30.8066 17.2391H17.5889Z" fill="#212121"/>
<path d="M33.3413 17.2391V16.9779L33.9505 16.7428C34.2507 16.6209 34.4538 16.4642 34.5597 16.2726C34.6833 16.0637 34.7451 15.7851 34.7451 15.4368V1.80227C34.7451 1.454 34.6922 1.1841 34.5862 0.992551C34.4979 0.783594 34.286 0.618169 33.9505 0.496276L33.3413 0.261198V0H46.0292L46.1881 4.02245H45.9233L44.7843 1.56719C44.6253 1.25375 44.4576 1.00126 44.281 0.809714C44.1044 0.618168 43.8395 0.522395 43.4863 0.522395H38.7184V8.07101H41.5527C41.9059 8.07101 42.1707 7.98395 42.3473 7.80981C42.5416 7.61827 42.7093 7.36578 42.8506 7.05234L43.3804 6.00755H43.6452V10.7091H43.3804L42.8506 9.61208C42.6917 9.29864 42.5239 9.05486 42.3473 8.88072C42.1707 8.68918 41.9059 8.59341 41.5527 8.59341H38.7184V16.7167H44.0691C44.4222 16.7167 44.696 16.6296 44.8902 16.4555C45.0845 16.2639 45.2434 16.0027 45.367 15.6719L46.453 13.2166H46.7179L46.559 17.2391H33.3413Z" fill="#212121"/>
<path d="M49.0936 17.2391V16.9779L49.6233 16.795C49.9765 16.6905 50.2061 16.5338 50.312 16.3249C50.4357 16.1159 50.4975 15.8373 50.4975 15.489V1.80227C50.4975 1.454 50.4357 1.17539 50.312 0.966432C50.1884 0.757473 49.95 0.592048 49.5969 0.470156L49.0936 0.261198V0H55.5303C58.1614 0 60.0598 0.478863 61.2253 1.43659C62.4084 2.3769 63 3.62194 63 5.17172C63 6.16427 62.7528 7.07846 62.2583 7.91429C61.7815 8.73271 60.9869 9.38571 59.8744 9.87328C58.7619 10.3608 57.2608 10.6046 55.3713 10.6046H54.4707V15.4107C54.4707 16.0898 54.8151 16.5338 55.5038 16.7428L56.2984 16.9779V17.2391H49.0936ZM54.4707 10.0822H55.4773C56.3426 10.0822 57.0489 9.94293 57.5964 9.66432C58.1438 9.38571 58.5499 8.89814 58.8148 8.20161C59.0797 7.50508 59.2122 6.53865 59.2122 5.30232C59.2122 4.04857 59.0621 3.07343 58.7619 2.3769C58.4793 1.68037 58.0555 1.20151 57.4904 0.940313C56.9253 0.661701 56.219 0.522395 55.3713 0.522395H54.4707V10.0822Z" fill="#212121"/>
<path d="M5.88671 28.4151C6.13835 28.4542 6.36681 28.5555 6.5721 28.7187C6.78401 28.8819 6.94956 29.0844 7.06876 29.326C7.19458 29.5676 7.25748 29.8255 7.25748 30.0998C7.25748 30.4459 7.16809 30.7593 6.98929 31.0401C6.81049 31.3144 6.54892 31.5331 6.20457 31.6964C5.86684 31.8531 5.4662 31.9314 5.00266 31.9314H2.42004V25.1044H4.90333C5.3735 25.1044 5.77413 25.1827 6.10524 25.3395C6.43634 25.4896 6.68467 25.6953 6.85023 25.9565C7.01578 26.2177 7.09856 26.5116 7.09856 26.8381C7.09856 27.2429 6.98598 27.5792 6.76083 27.847C6.5423 28.1081 6.25093 28.2975 5.88671 28.4151ZM3.32395 28.0526H4.84373C5.26754 28.0526 5.59534 27.9547 5.82711 27.7588C6.05888 27.5629 6.17477 27.2919 6.17477 26.9458C6.17477 26.5997 6.05888 26.3287 5.82711 26.1328C5.59534 25.9369 5.26092 25.839 4.82386 25.839H3.32395V28.0526ZM4.92319 31.1968C5.3735 31.1968 5.72447 31.0923 5.97611 30.8834C6.22775 30.6744 6.35357 30.3838 6.35357 30.0116C6.35357 29.6329 6.22113 29.3358 5.95624 29.1203C5.69136 28.8983 5.33708 28.7873 4.8934 28.7873H3.32395V31.1968H4.92319Z" fill="#212121"/>
<path d="M14.1837 25.8292V28.1114H16.7067V28.846H14.1837V31.1968H17.0047V31.9314H13.2798V25.0946H17.0047V25.8292H14.1837Z" fill="#212121"/>
<path d="M27.2328 30.4132H24.2131L23.6569 31.9314H22.7033L25.2065 25.1436H26.2494L28.7427 31.9314H27.7891L27.2328 30.4132ZM26.9746 29.6884L25.723 26.2406L24.4714 29.6884H26.9746Z" fill="#212121"/>
<path d="M35.4856 25.1044V29.4239C35.4856 30.0312 35.6346 30.4818 35.9326 30.7756C36.2372 31.0695 36.6577 31.2164 37.1941 31.2164C37.7239 31.2164 38.1377 31.0695 38.4357 30.7756C38.7403 30.4818 38.8927 30.0312 38.8927 29.4239V25.1044H39.7966V29.4141C39.7966 29.9822 39.6807 30.4622 39.4489 30.854C39.2171 31.2393 38.9026 31.5266 38.5053 31.7159C38.1146 31.9053 37.6742 32 37.1842 32C36.6941 32 36.2504 31.9053 35.8531 31.7159C35.4624 31.5266 35.1512 31.2393 34.9194 30.854C34.6942 30.4622 34.5817 29.9822 34.5817 29.4141V25.1044H35.4856Z" fill="#212121"/>
<path d="M50.3337 25.1044V25.8292H48.4464V31.9314H47.5425V25.8292H45.6453V25.1044H50.3337Z" fill="#212121"/>
<path d="M61.0617 25.1044L58.8068 29.3554V31.9314H57.9029V29.3554L55.6382 25.1044H56.6414L58.3499 28.562L60.0584 25.1044H61.0617Z" fill="#212121"/>
</svg>
